# Apple ModelIO OBJ File: selector_ring
mtllib selector_ring.mtl
g 
v 0.111488 0.002642 0.416081
v 0 0.002642 0.430758
v 0 0.004638 0.5
v 0.129409 0.004638 0.482963
v -0.430758 0.002642 0
v -0.416081 0.002642 -0.111488
v -0.482963 0.004638 -0.12941
v -0.5 0.004638 0
v 0.304592 0.002642 -0.304592
v 0.373048 0.002642 -0.215379
v 0.433013 0.004638 -0.25
v 0.353554 0.004638 -0.353553
v 0.215379 0.002642 0.373048
v 0.25 0.004638 0.433013
v -0.416081 0.002642 0.111488
v -0.482963 0.004638 0.129409
v 0.215379 0.002642 -0.373047
v 0.25 0.004638 -0.433013
v 0.304592 0.002642 0.304592
v 0.353553 0.004638 0.353554
v -0.373048 0.002642 0.215379
v -0.433013 0.004638 0.25
v 0.111489 0.002642 -0.41608
v 0.12941 0.004638 -0.482963
v -0.111488 0.002642 -0.416081
v 0 0.002642 -0.430758
v 0 0.004638 -0.5
v -0.12941 0.004638 -0.482963
v 0.373048 0.002642 0.215379
v 0.433013 0.004638 0.25
v -0.304592 0.002642 0.304592
v -0.353553 0.004638 0.353553
v -0.215379 0.002642 -0.373048
v -0.25 0.004638 -0.433013
v 0.41608 0.002642 0.111489
v 0.482963 0.004638 0.12941
v -0.215379 0.002642 0.373048
v -0.25 0.004638 0.433013
v -0.304592 0.002642 -0.304592
v -0.353553 0.004638 -0.353553
v 0.430758 0.002642 0
v 0.5 0.004638 0
v -0.111489 0.002642 0.416081
v -0.12941 0.004638 0.482963
v -0.373048 0.002642 -0.215379
v -0.433013 0.004638 -0.25
v 0.416081 0.002642 -0.111488
v 0.482963 0.004638 -0.129409
v 0.111488 -0.043365 0.416081
v 0.129409 -0.045362 0.482963
v 0 -0.045362 0.5
v 0 -0.043365 0.430758
v -0.430758 -0.043365 0
v -0.5 -0.045362 0
v -0.482963 -0.045362 -0.12941
v -0.416081 -0.043365 -0.111488
v 0.304592 -0.043365 -0.304592
v 0.353554 -0.045362 -0.353553
v 0.433013 -0.045362 -0.25
v 0.373048 -0.043365 -0.215379
v 0.215379 -0.043365 0.373048
v 0.25 -0.045362 0.433013
v -0.416081 -0.043365 0.111488
v -0.482963 -0.045362 0.129409
v 0.215379 -0.043365 -0.373047
v 0.25 -0.045362 -0.433013
v 0.304592 -0.043365 0.304592
v 0.353553 -0.045362 0.353554
v -0.373048 -0.043365 0.215379
v -0.433013 -0.045362 0.25
v 0.111489 -0.043365 -0.41608
v 0.12941 -0.045362 -0.482963
v -0.111488 -0.043365 -0.416081
v -0.12941 -0.045362 -0.482963
v 0 -0.045362 -0.5
v 0 -0.043365 -0.430758
v 0.373048 -0.043365 0.215379
v 0.433013 -0.045362 0.25
v -0.304592 -0.043365 0.304592
v -0.353553 -0.045362 0.353553
v -0.215379 -0.043365 -0.373048
v -0.25 -0.045362 -0.433013
v 0.41608 -0.043365 0.111489
v 0.482963 -0.045362 0.12941
v -0.215379 -0.043365 0.373048
v -0.25 -0.045362 0.433013
v -0.304592 -0.043365 -0.304592
v -0.353553 -0.045362 -0.353553
v 0.430758 -0.043365 0
v 0.5 -0.045362 0
v -0.111489 -0.043365 0.416081
v -0.12941 -0.045362 0.482963
v -0.373048 -0.043365 -0.215379
v -0.433013 -0.045362 -0.25
v 0.416081 -0.043365 -0.111488
v 0.482963 -0.045362 -0.129409
vn -0.0038 0.9996 -0.0288
vn 0.0288 0.9996 0.0038
vn -0.0231 0.9996 0.0177
vn -0.0111 0.9996 -0.0269
vn 0.0288 0.9996 -0.0038
vn -0.0177 0.9996 0.0231
vn -0.0177 0.9996 -0.0231
vn 0.0269 0.9996 -0.0111
vn -0.0111 0.9996 0.0269
vn 0.0038 0.9996 0.0288
vn -0.0231 0.9996 -0.0177
vn 0.0231 0.9996 -0.0177
vn -0.0038 0.9996 0.0288
vn 0.0111 0.9996 0.0269
vn -0.0269 0.9996 -0.0111
vn 0.0177 0.9996 -0.0231
vn 0.0177 0.9996 0.0231
vn -0.0288 0.9996 -0.0038
vn 0.0111 0.9996 -0.0269
vn 0.0231 0.9996 0.0177
vn -0.0288 0.9996 0.0038
vn 0.0038 0.9996 -0.0288
vn 0.0269 0.9996 0.0111
vn -0.0269 0.9996 0.0111
vn -0.0038 -0.9996 -0.0288
vn 0.0288 -0.9996 0.0038
vn -0.0231 -0.9996 0.0177
vn -0.0111 -0.9996 -0.0269
vn 0.0288 -0.9996 -0.0038
vn -0.0177 -0.9996 0.0231
vn -0.0177 -0.9996 -0.0231
vn 0.0269 -0.9996 -0.0111
vn -0.0111 -0.9996 0.0269
vn 0.0038 -0.9996 0.0288
vn -0.0231 -0.9996 -0.0177
vn 0.0231 -0.9996 -0.0177
vn -0.0038 -0.9996 0.0288
vn 0.0111 -0.9996 0.0269
vn -0.0269 -0.9996 -0.0111
vn 0.0177 -0.9996 -0.0231
vn 0.0177 -0.9996 0.0231
vn -0.0288 -0.9996 -0.0038
vn 0.0111 -0.9996 -0.0269
vn 0.0231 -0.9996 0.0177
vn -0.0288 -0.9996 0.0038
vn 0.0038 -0.9996 -0.0288
vn 0.0269 -0.9996 0.0111
vn -0.0269 -0.9996 0.0111
vn 0.3827 0 -0.9239
vn 0.3827 0 0.9239
vn -0.1305 0 -0.9914
vn 0.1305 0 -0.9914
vn 0.6088 0 0.7934
vn -0.3827 0 -0.9239
vn 0.7934 0 0.6088
vn -0.6088 0 -0.7934
vn 0.9239 0 0.3827
vn 0.1305 0 0.9914
vn -0.7934 0 -0.6088
vn 0.9914 0 0.1305
vn -0.9239 0 -0.3827
vn 0.9914 0 -0.1305
vn -0.9914 0 -0.1305
vn 0.9239 0 -0.3827
vn -0.9914 0 0.1305
vn 0.7934 0 -0.6088
vn -0.9239 0 0.3827
vn 0.6088 0 -0.7934
vn -0.7934 0 0.6088
vn -0.6088 0 0.7934
vn -0.3827 0 0.9239
vn -0.1305 0 0.9914
vt 0 0
usemtl material_1
f 1/1/1 2/1/1 3/1/1 4/1/1 
f 5/1/2 6/1/2 7/1/2 8/1/2 
f 9/1/3 10/1/3 11/1/3 12/1/3 
f 13/1/4 1/1/4 4/1/4 14/1/4 
f 15/1/5 5/1/5 8/1/5 16/1/5 
f 17/1/6 9/1/6 12/1/6 18/1/6 
f 19/1/7 13/1/7 14/1/7 20/1/7 
f 21/1/8 15/1/8 16/1/8 22/1/8 
f 23/1/9 17/1/9 18/1/9 24/1/9 
f 25/1/10 26/1/10 27/1/10 28/1/10 
f 29/1/11 19/1/11 20/1/11 30/1/11 
f 31/1/12 21/1/12 22/1/12 32/1/12 
f 26/1/13 23/1/13 24/1/13 27/1/13 
f 33/1/14 25/1/14 28/1/14 34/1/14 
f 35/1/15 29/1/15 30/1/15 36/1/15 
f 37/1/16 31/1/16 32/1/16 38/1/16 
f 39/1/17 33/1/17 34/1/17 40/1/17 
f 41/1/18 35/1/18 36/1/18 42/1/18 
f 43/1/19 37/1/19 38/1/19 44/1/19 
f 45/1/20 39/1/20 40/1/20 46/1/20 
f 47/1/21 41/1/21 42/1/21 48/1/21 
f 2/1/22 43/1/22 44/1/22 3/1/22 
f 6/1/23 45/1/23 46/1/23 7/1/23 
f 10/1/24 47/1/24 48/1/24 11/1/24 
f 49/1/25 50/1/25 51/1/25 52/1/25 
f 53/1/26 54/1/26 55/1/26 56/1/26 
f 57/1/27 58/1/27 59/1/27 60/1/27 
f 61/1/28 62/1/28 50/1/28 49/1/28 
f 63/1/29 64/1/29 54/1/29 53/1/29 
f 65/1/30 66/1/30 58/1/30 57/1/30 
f 67/1/31 68/1/31 62/1/31 61/1/31 
f 69/1/32 70/1/32 64/1/32 63/1/32 
f 71/1/33 72/1/33 66/1/33 65/1/33 
f 73/1/34 74/1/34 75/1/34 76/1/34 
f 77/1/35 78/1/35 68/1/35 67/1/35 
f 79/1/36 80/1/36 70/1/36 69/1/36 
f 76/1/37 75/1/37 72/1/37 71/1/37 
f 81/1/38 82/1/38 74/1/38 73/1/38 
f 83/1/39 84/1/39 78/1/39 77/1/39 
f 85/1/40 86/1/40 80/1/40 79/1/40 
f 87/1/41 88/1/41 82/1/41 81/1/41 
f 89/1/42 90/1/42 84/1/42 83/1/42 
f 91/1/43 92/1/43 86/1/43 85/1/43 
f 93/1/44 94/1/44 88/1/44 87/1/44 
f 95/1/45 96/1/45 90/1/45 89/1/45 
f 52/1/46 51/1/46 92/1/46 91/1/46 
f 56/1/47 55/1/47 94/1/47 93/1/47 
f 60/1/48 59/1/48 96/1/48 95/1/48 
f 43/1/49 91/1/49 85/1/49 37/1/49 
f 4/1/50 50/1/50 62/1/50 14/1/50 
f 27/1/51 75/1/51 74/1/51 28/1/51 
f 2/1/52 52/1/52 91/1/52 43/1/52 
f 14/1/53 62/1/53 68/1/53 20/1/53 
f 28/1/54 74/1/54 82/1/54 34/1/54 
f 1/1/51 49/1/51 52/1/51 2/1/51 
f 20/1/55 68/1/55 78/1/55 30/1/55 
f 34/1/56 82/1/56 88/1/56 40/1/56 
f 13/1/54 61/1/54 49/1/54 1/1/54 
f 30/1/57 78/1/57 84/1/57 36/1/57 
f 25/1/58 73/1/58 76/1/58 26/1/58 
f 40/1/59 88/1/59 94/1/59 46/1/59 
f 19/1/56 67/1/56 61/1/56 13/1/56 
f 36/1/60 84/1/60 90/1/60 42/1/60 
f 33/1/50 81/1/50 73/1/50 25/1/50 
f 46/1/61 94/1/61 55/1/61 7/1/61 
f 29/1/59 77/1/59 67/1/59 19/1/59 
f 42/1/62 90/1/62 96/1/62 48/1/62 
f 39/1/53 87/1/53 81/1/53 33/1/53 
f 7/1/63 55/1/63 54/1/63 8/1/63 
f 35/1/61 83/1/61 77/1/61 29/1/61 
f 48/1/64 96/1/64 59/1/64 11/1/64 
f 45/1/55 93/1/55 87/1/55 39/1/55 
f 8/1/65 54/1/65 64/1/65 16/1/65 
f 41/1/63 89/1/63 83/1/63 35/1/63 
f 11/1/66 59/1/66 58/1/66 12/1/66 
f 6/1/57 56/1/57 93/1/57 45/1/57 
f 16/1/67 64/1/67 70/1/67 22/1/67 
f 47/1/65 95/1/65 89/1/65 41/1/65 
f 12/1/68 58/1/68 66/1/68 18/1/68 
f 5/1/60 53/1/60 56/1/60 6/1/60 
f 22/1/69 70/1/69 80/1/69 32/1/69 
f 10/1/67 60/1/67 95/1/67 47/1/67 
f 18/1/49 66/1/49 72/1/49 24/1/49 
f 15/1/62 63/1/62 53/1/62 5/1/62 
f 32/1/70 80/1/70 86/1/70 38/1/70 
f 9/1/69 57/1/69 60/1/69 10/1/69 
f 24/1/52 72/1/52 75/1/52 27/1/52 
f 21/1/64 69/1/64 63/1/64 15/1/64 
f 38/1/71 86/1/71 92/1/71 44/1/71 
f 17/1/70 65/1/70 57/1/70 9/1/70 
f 31/1/66 79/1/66 69/1/66 21/1/66 
f 44/1/72 92/1/72 51/1/72 3/1/72 
f 23/1/71 71/1/71 65/1/71 17/1/71 
f 37/1/68 85/1/68 79/1/68 31/1/68 
f 3/1/58 51/1/58 50/1/58 4/1/58 
f 26/1/72 76/1/72 71/1/72 23/1/72 
s off
