# Blender v2.82 (sub 7) OBJ File: 'chem_tools.blend'
# www.blender.org
mtllib Pipetta.mtl
o Pipetta_Circle.005
v -0.000917 -0.000000 -0.090883
v -0.000649 -0.000649 -0.090883
v -0.000000 -0.000917 -0.090883
v 0.000649 -0.000649 -0.090883
v 0.000917 -0.000000 -0.090883
v 0.000649 0.000648 -0.090883
v -0.000000 0.000917 -0.090883
v -0.000649 0.000648 -0.090883
v -0.002527 -0.000000 0.019186
v -0.001787 -0.001787 0.019186
v -0.000000 -0.002527 0.019186
v 0.001787 -0.001787 0.019186
v 0.002527 -0.000000 0.019186
v 0.001787 0.001787 0.019186
v -0.000000 0.002527 0.019186
v -0.001787 0.001787 0.019186
v -0.000000 -0.000000 0.052847
v -0.004076 -0.000000 0.051728
v -0.002750 -0.000000 0.052847
v -0.001945 -0.001945 0.052847
v -0.002882 -0.002882 0.051728
v -0.000000 -0.002750 0.052847
v 0.000000 -0.004076 0.051728
v 0.001945 -0.001945 0.052847
v 0.002882 -0.002882 0.051728
v 0.002750 -0.000000 0.052847
v 0.004076 -0.000000 0.051728
v 0.001945 0.001945 0.052847
v 0.002882 0.002882 0.051728
v -0.000000 0.002750 0.052847
v -0.000000 0.004076 0.051728
v -0.001945 0.001945 0.052847
v -0.002882 0.002882 0.051728
v -0.003549 -0.000000 0.019186
v -0.004076 -0.000000 0.019630
v -0.002882 -0.002882 0.019630
v -0.002510 -0.002510 0.019186
v 0.000000 -0.004076 0.019630
v 0.000000 -0.003549 0.019186
v 0.002882 -0.002882 0.019630
v 0.002510 -0.002510 0.019186
v 0.004076 -0.000000 0.019630
v 0.003549 -0.000000 0.019186
v 0.002882 0.002882 0.019630
v 0.002510 0.002510 0.019186
v -0.000000 0.004076 0.019630
v -0.000000 0.003549 0.019186
v -0.002882 0.002882 0.019630
v -0.002510 0.002510 0.019186
v -0.001741 0.001741 0.014744
v -0.002462 -0.000000 0.014744
v 0.001741 0.001741 0.014744
v -0.000000 0.002462 0.014744
v 0.001741 -0.001741 0.014744
v 0.002462 -0.000000 0.014744
v -0.001741 -0.001741 0.014744
v -0.000000 -0.002462 0.014744
v -0.001764 0.001764 0.016965
v 0.001764 0.001764 0.016965
v 0.001764 -0.001764 0.016965
v -0.001764 -0.001764 0.016965
v -0.002495 -0.000000 0.016965
v -0.000000 0.002495 0.016965
v 0.002495 -0.000000 0.016965
v -0.000000 -0.002495 0.016965
vt 0.000000 0.000000
vt 0.000000 0.000000
vt 0.000000 0.000000
vt 0.000000 0.000000
vt 0.000000 0.000000
vt 0.000000 0.000000
vt 0.000000 0.000000
vt 0.000000 0.000000
vt 0.000000 0.000000
vt 0.000000 0.000000
vt 0.000000 0.000000
vt 0.000000 0.000000
vt 0.000000 0.000000
vt 0.000000 0.000000
vt 0.000000 0.000000
vt 0.000000 0.000000
vt 0.000000 0.000000
vt 0.000000 0.000000
vt 0.000000 0.000000
vt 0.000000 0.000000
vt 0.000000 0.000000
vt 0.000000 0.000000
vt 0.000000 0.000000
vt 0.000000 0.000000
vt 0.000000 0.000000
vt 0.000000 0.000000
vt 0.000000 0.000000
vt 0.000000 0.000000
vt 0.000000 0.000000
vt 0.000000 0.000000
vt 0.000000 0.000000
vt 0.000000 0.000000
vt 0.000000 0.000000
vt 0.000000 0.000000
vt 0.000000 0.000000
vt 0.000000 0.000000
vt 0.000000 0.000000
vt 0.000000 0.000000
vt 0.000000 0.000000
vt 0.000000 0.000000
vt 0.000000 0.000000
vt 0.000000 0.000000
vt 0.000000 0.000000
vt 0.000000 0.000000
vt 0.000000 0.000000
vt 0.000000 0.000000
vt 0.000000 0.000000
vt 0.000000 0.000000
vt 0.000000 0.000000
vt 0.000000 0.000000
vt 0.000000 0.000000
vt 0.000000 0.000000
vt 0.000000 0.000000
vt 0.000000 0.000000
vt 0.000000 0.000000
vt 0.000000 0.000000
vt 0.000000 0.000000
vt 0.000000 0.000000
vt 0.000000 0.000000
vt 0.000000 0.000000
vt 0.000000 0.000000
vt 0.000000 0.000000
vt 0.000000 0.000000
vt 0.000000 0.000000
vt 0.000000 0.000000
vn -0.9999 0.0000 -0.0146
vn -0.5888 0.0000 -0.8082
vn -0.4164 0.4164 -0.8082
vn -0.7070 0.7070 -0.0146
vn 0.0000 0.9999 -0.0146
vn 0.0000 0.5888 -0.8082
vn 0.4164 0.4164 -0.8082
vn 0.7070 0.7070 -0.0146
vn 0.9999 0.0000 -0.0146
vn 0.5888 0.0000 -0.8082
vn 0.4164 -0.4164 -0.8082
vn 0.7070 -0.7070 -0.0146
vn 0.0000 -0.9999 -0.0146
vn 0.0000 -0.5888 -0.8082
vn -0.4164 -0.4164 -0.8082
vn -0.7070 -0.7070 -0.0146
vn 0.0000 0.9223 -0.3863
vn 0.0000 0.9223 0.3863
vn 0.6522 0.6522 0.3863
vn 0.6522 0.6522 -0.3863
vn 0.9223 0.0000 -0.3863
vn 0.9223 0.0000 0.3863
vn 0.6522 -0.6522 0.3863
vn 0.6522 -0.6522 -0.3863
vn -0.9223 0.0000 -0.3863
vn -0.9223 0.0000 0.3863
vn -0.6522 0.6522 0.3863
vn -0.6522 0.6522 -0.3863
vn 0.0000 -0.9223 -0.3863
vn 0.0000 -0.9223 0.3863
vn -0.6522 -0.6522 0.3863
vn -0.6522 -0.6522 -0.3863
vn -0.2929 0.2929 0.9101
vn 0.0000 0.0000 1.0000
vn 0.0000 0.4143 0.9101
vn 0.2929 0.2929 0.9101
vn 0.4143 0.0000 0.9101
vn 0.2929 -0.2929 0.9101
vn 0.0000 -0.4143 0.9101
vn -0.4143 0.0000 0.9101
vn -0.2929 -0.2929 0.9101
vn -0.2930 -0.2930 -0.9101
vn -0.4143 0.0000 -0.9101
vn -0.2930 0.2930 -0.9101
vn 0.0000 0.4143 -0.9101
vn 0.2930 0.2930 -0.9101
vn 0.4143 0.0000 -0.9101
vn 0.2930 -0.2930 -0.9101
vn 0.0000 -0.4143 -0.9101
usemtl None
s 1
f 62/1/1 9/2/2 16/3/3 58/4/4
f 63/5/5 15/6/6 14/7/7 59/8/8
f 64/9/9 13/10/10 12/11/11 60/12/12
f 65/13/13 11/14/14 10/15/15 61/16/16
f 58/4/4 16/3/3 15/6/6 63/5/5
f 59/8/8 14/7/7 13/10/10 64/9/9
f 60/12/12 12/11/11 11/14/14 65/13/13
f 61/16/16 10/15/15 9/2/2 62/1/1
f 46/17/17 31/18/18 29/19/19 44/20/20
f 42/21/21 27/22/22 25/23/23 40/24/24
f 35/25/25 18/26/26 33/27/27 48/28/28
f 38/29/29 23/30/30 21/31/31 36/32/32
f 48/28/28 33/27/27 31/18/18 46/17/17
f 44/20/20 29/19/19 27/22/22 42/21/21
f 40/24/24 25/23/23 23/30/30 38/29/29
f 32/33/33 17/34/34 30/35/35
f 28/36/36 17/34/34 26/37/37
f 24/38/38 17/34/34 22/39/39
f 30/35/35 17/34/34 28/36/36
f 26/37/37 17/34/34 24/38/38
f 19/40/40 17/34/34 32/33/33
f 22/39/39 17/34/34 20/41/41
f 10/15/15 37/42/42 34/43/43 9/2/2
f 9/2/2 34/43/43 49/44/44 16/3/3
f 15/6/6 47/45/45 45/46/46 14/7/7
f 13/10/10 43/47/47 41/48/48 12/11/11
f 11/14/14 39/49/49 37/42/42 10/15/15
f 16/3/3 49/44/44 47/45/45 15/6/6
f 14/7/7 45/46/46 43/47/47 13/10/10
f 12/11/11 41/48/48 39/49/49 11/14/14
f 21/31/31 20/41/41 19/40/40 18/26/26
f 23/30/30 22/39/39 20/41/41 21/31/31
f 25/23/23 24/38/38 22/39/39 23/30/30
f 27/22/22 26/37/37 24/38/38 25/23/23
f 29/19/19 28/36/36 26/37/37 27/22/22
f 31/18/18 30/35/35 28/36/36 29/19/19
f 33/27/27 32/33/33 30/35/35 31/18/18
f 18/26/26 19/40/40 32/33/33 33/27/27
f 20/41/41 17/34/34 19/40/40
f 37/42/42 36/32/32 35/25/25 34/43/43
f 39/49/49 38/29/29 36/32/32 37/42/42
f 41/48/48 40/24/24 38/29/29 39/49/49
f 43/47/47 42/21/21 40/24/24 41/48/48
f 45/46/46 44/20/20 42/21/21 43/47/47
f 47/45/45 46/17/17 44/20/20 45/46/46
f 49/44/44 48/28/28 46/17/17 47/45/45
f 34/43/43 35/25/25 48/28/28 49/44/44
f 36/32/32 21/31/31 18/26/26 35/25/25
f 2/50/16 56/51/16 51/52/1 1/53/1
f 4/54/12 54/55/12 57/56/13 3/57/13
f 6/58/8 52/59/8 55/60/9 5/61/9
f 8/62/4 50/63/4 53/64/5 7/65/5
f 3/57/13 57/56/13 56/51/16 2/50/16
f 5/61/9 55/60/9 54/55/12 4/54/12
f 7/65/5 53/64/5 52/59/8 6/58/8
f 1/53/1 51/52/1 50/63/4 8/62/4
f 56/51/16 61/16/16 62/1/1 51/52/1
f 54/55/12 60/12/12 65/13/13 57/56/13
f 52/59/8 59/8/8 64/9/9 55/60/9
f 50/63/4 58/4/4 63/5/5 53/64/5
f 57/56/13 65/13/13 61/16/16 56/51/16
f 55/60/9 64/9/9 60/12/12 54/55/12
f 53/64/5 63/5/5 59/8/8 52/59/8
f 51/52/1 62/1/1 58/4/4 50/63/4
